<svg width="17" height="16" viewBox="0 0 17 16" fill="none" xmlns="http://www.w3.org/2000/svg">
<g clip-path="url(#clip0_152:1240)">
<path d="M0.597656 7.7643L5.59766 2.7643C5.72787 2.63408 5.93881 2.63408 6.069 2.7643C6.19922 2.89452 6.19922 3.10545 6.069 3.23564L1.638 7.66664H16.1667C16.3509 7.66664 16.5 7.81574 16.5 7.99999C16.5 8.18424 16.3509 8.33333 16.1667 8.33333H1.638L6.069 12.7643C6.19922 12.8945 6.19922 13.1055 6.069 13.2356C6.00391 13.3007 5.91859 13.3333 5.83331 13.3333C5.74803 13.3333 5.66275 13.3007 5.59762 13.2356L0.597625 8.23564C0.467438 8.10545 0.467438 7.89452 0.597656 7.7643Z" fill="white"/>
</g>
<defs>
<clipPath id="clip0_152:1240">
<rect width="16" height="16" fill="white" transform="matrix(-1 0 0 1 16.5 0)"/>
</clipPath>
</defs>
</svg>
