<svg width="16" height="16" viewBox="0 0 16 16" fill="none" xmlns="http://www.w3.org/2000/svg">
<g clip-path="url(#clip0_510:1743)">
<path d="M0.0976562 7.76429L5.09766 2.76429C5.22787 2.63407 5.43881 2.63407 5.569 2.76429C5.69922 2.89451 5.69922 3.10545 5.569 3.23563L1.138 7.66663H15.6667C15.8509 7.66663 16 7.81573 16 7.99998C16 8.18423 15.8509 8.33332 15.6667 8.33332H1.138L5.569 12.7643C5.69922 12.8945 5.69922 13.1054 5.569 13.2356C5.50391 13.3007 5.41859 13.3333 5.33331 13.3333C5.24803 13.3333 5.16275 13.3007 5.09762 13.2356L0.0976248 8.23563C-0.0325623 8.10545 -0.0325623 7.89451 0.0976562 7.76429Z" fill="black"/>
</g>
<defs>
<clipPath id="clip0_510:1743">
<rect width="16" height="16" fill="white" transform="matrix(-1 0 0 1 16 0)"/>
</clipPath>
</defs>
</svg>
