<svg width="16" height="16" viewBox="0 0 16 16" fill="none" xmlns="http://www.w3.org/2000/svg">
<g clip-path="url(#clip0_510:1756)">
<path d="M15.9023 7.76429L10.9023 2.76429C10.7721 2.63407 10.5612 2.63407 10.431 2.76429C10.3008 2.89451 10.3008 3.10545 10.431 3.23563L14.862 7.66663H0.333344C0.149094 7.66663 0 7.81573 0 7.99998C0 8.18423 0.149094 8.33332 0.333344 8.33332H14.862L10.431 12.7643C10.3008 12.8945 10.3008 13.1054 10.431 13.2356C10.4961 13.3007 10.5814 13.3333 10.6667 13.3333C10.752 13.3333 10.8372 13.3007 10.9024 13.2356L15.9024 8.23563C16.0326 8.10545 16.0326 7.89451 15.9023 7.76429Z" fill="black"/>
</g>
<defs>
<clipPath id="clip0_510:1756">
<rect width="16" height="16" fill="white"/>
</clipPath>
</defs>
</svg>
