<svg width="20" height="28" viewBox="0 0 20 28" fill="none" xmlns="http://www.w3.org/2000/svg">
<g clip-path="url(#clip0_45:337)">
<path d="M17.3698 6.7808L17.3512 6.7699L17.3084 6.75684C17.3256 6.77138 17.3472 6.77983 17.3698 6.7808Z" fill="#0D0C22"/>
<path d="M17.6397 8.70947L17.619 8.71528L17.6397 8.70947Z" fill="#0D0C22"/>
<path d="M17.3777 6.77772C17.3751 6.77738 17.3725 6.77677 17.37 6.77588C17.3698 6.77759 17.3698 6.77932 17.37 6.78103C17.3728 6.78065 17.3755 6.77951 17.3777 6.77772Z" fill="#0D0C22"/>
<path d="M17.3699 6.78078H17.3726V6.77905L17.3699 6.78078Z" fill="#0D0C22"/>
<path d="M17.6231 8.706L17.6544 8.68821L17.666 8.68166L17.6765 8.67041C17.6567 8.67894 17.6387 8.69101 17.6231 8.706Z" fill="#0D0C22"/>
<path d="M17.4238 6.82279L17.3933 6.79372L17.3726 6.78247C17.3837 6.8021 17.4021 6.81658 17.4238 6.82279Z" fill="#0D0C22"/>
<path d="M9.74708 25.5405C9.72269 25.5511 9.70133 25.5675 9.68495 25.5884L9.7042 25.5762C9.71729 25.5642 9.7358 25.55 9.74708 25.5405Z" fill="#0D0C22"/>
<path d="M14.2049 24.6636C14.2049 24.6361 14.1915 24.6412 14.1947 24.7391C14.1947 24.7313 14.198 24.7233 14.1994 24.7157C14.2013 24.6982 14.2027 24.6811 14.2049 24.6636Z" fill="#0D0C22"/>
<path d="M13.7425 25.5405C13.7181 25.5511 13.6968 25.5675 13.6804 25.5884L13.6997 25.5762C13.7127 25.5642 13.7313 25.55 13.7425 25.5405Z" fill="#0D0C22"/>
<path d="M6.60767 25.7491C6.58916 25.7331 6.5665 25.7225 6.54229 25.7185C6.5619 25.728 6.58151 25.7375 6.59458 25.7447L6.60767 25.7491Z" fill="#0D0C22"/>
<path d="M5.90126 25.0725C5.89836 25.044 5.88958 25.0163 5.87546 24.9912C5.88547 25.0172 5.89383 25.044 5.90052 25.071L5.90126 25.0725Z" fill="#0D0C22"/>
<path d="M10.6465 12.9727C9.67663 13.3879 8.57603 13.8586 7.14961 13.8586C6.55291 13.8575 5.95908 13.7756 5.38431 13.6153L6.37085 23.7441C6.40577 24.1674 6.59863 24.5621 6.91113 24.8499C7.22362 25.1376 7.63291 25.2972 8.05769 25.2972C8.05769 25.2972 9.4565 25.3698 9.92326 25.3698C10.4256 25.3698 11.9319 25.2972 11.9319 25.2972C12.3567 25.2972 12.7658 25.1374 13.0783 24.8497C13.3907 24.5619 13.5835 24.1674 13.6184 23.7441L14.6751 12.5514C14.2029 12.3901 13.7263 12.283 13.1891 12.283C12.2599 12.2826 11.5113 12.6026 10.6465 12.9727Z" fill="#FFDD00"/>
<path d="M2.33041 8.65137L2.34711 8.66699L2.35801 8.67353C2.34962 8.66519 2.34037 8.65776 2.33041 8.65137Z" fill="#0D0C22"/>
<path d="M19.2371 7.71652L19.0886 6.96716C18.9553 6.29482 18.6527 5.65953 17.9626 5.41653C17.7414 5.33878 17.4904 5.30539 17.3207 5.14446C17.1511 4.98356 17.101 4.73366 17.0618 4.50191C16.9891 4.07656 16.9208 3.65085 16.8463 3.22624C16.7821 2.86118 16.7312 2.4511 16.5638 2.1162C16.3458 1.66652 15.8936 1.40354 15.4439 1.22955C15.2135 1.14353 14.9783 1.07077 14.7396 1.01161C13.6161 0.715213 12.4349 0.606243 11.2791 0.54413C9.89181 0.46758 8.50081 0.490643 7.11681 0.613144C6.08669 0.706858 5.00171 0.820188 4.02281 1.17652C3.66503 1.30692 3.29634 1.46347 3.02429 1.73989C2.69047 2.07951 2.5815 2.60475 2.82522 3.02827C2.99849 3.32903 3.29199 3.54152 3.60328 3.68209C4.00875 3.86322 4.4322 4.00105 4.8666 4.09328C6.07616 4.36062 7.32894 4.46558 8.56465 4.51027C9.93428 4.56554 11.3061 4.52074 12.6692 4.37622C13.0063 4.33917 13.3427 4.29473 13.6786 4.24293C14.0742 4.18226 14.3281 3.66502 14.2115 3.30469C14.072 2.87391 13.6971 2.70682 13.2732 2.77184C13.2108 2.78164 13.1487 2.79071 13.0862 2.79979L13.0411 2.80634C12.8975 2.82451 12.7539 2.84144 12.6103 2.85719C12.3137 2.88915 12.0163 2.91531 11.7182 2.93566C11.0506 2.98214 10.3812 3.00357 9.71212 3.00467C9.05466 3.00467 8.39685 2.98613 7.74085 2.94292C7.44155 2.92331 7.14296 2.89836 6.84512 2.86808C6.70963 2.85392 6.57451 2.83904 6.4394 2.82232L6.3108 2.80598L6.28285 2.80199L6.14953 2.78274C5.87711 2.74168 5.60468 2.69447 5.33517 2.63743C5.30798 2.6314 5.28364 2.61628 5.2662 2.59454C5.24876 2.57282 5.23926 2.54579 5.23926 2.51793C5.23926 2.49008 5.24876 2.46305 5.2662 2.44132C5.28364 2.41959 5.30798 2.40446 5.33517 2.39843H5.34025C5.57382 2.34867 5.80917 2.30617 6.04527 2.26912C6.12399 2.25677 6.20292 2.24466 6.28211 2.2328H6.28428C6.43212 2.22299 6.58069 2.19647 6.72779 2.17904C8.0077 2.04591 9.29521 2.00052 10.5813 2.04319C11.2057 2.06135 11.8298 2.09804 12.4512 2.16124C12.5849 2.17504 12.7179 2.18957 12.8508 2.20592C12.9016 2.21209 12.9529 2.21936 13.0041 2.22553L13.1072 2.24042C13.408 2.28522 13.7072 2.33959 14.0048 2.40352C14.4458 2.49941 15.012 2.53065 15.2082 3.01374C15.2707 3.16703 15.299 3.33739 15.3335 3.49829L15.3774 3.70352C15.3786 3.70719 15.3794 3.71097 15.38 3.71477C15.4839 4.19908 15.5879 4.6834 15.692 5.16771C15.6996 5.20349 15.6998 5.24045 15.6925 5.2763C15.6852 5.31216 15.6707 5.34611 15.6496 5.37609C15.6287 5.40604 15.6017 5.43135 15.5705 5.45044C15.5393 5.46952 15.5045 5.48195 15.4683 5.487H15.4653L15.4018 5.49572L15.3389 5.50406C15.1399 5.52998 14.9406 5.55419 14.7411 5.57672C14.348 5.62151 13.9544 5.66025 13.5602 5.69295C12.7768 5.75808 11.9919 5.80082 11.2054 5.82117C10.8046 5.83181 10.4039 5.8368 10.0034 5.83606C8.4092 5.83481 6.81634 5.74214 5.23274 5.55854C5.06128 5.53821 4.88984 5.51641 4.71839 5.49426C4.85134 5.51134 4.62177 5.48117 4.57528 5.47465C4.46631 5.45939 4.35734 5.44353 4.24837 5.42707C3.88259 5.3722 3.51901 5.30465 3.15395 5.24543C2.71263 5.17279 2.29055 5.20913 1.89136 5.42707C1.56368 5.60638 1.29848 5.88134 1.13112 6.21528C0.958943 6.57124 0.907727 6.95881 0.830723 7.3413C0.753717 7.72378 0.633851 8.13532 0.679254 8.52797C0.776964 9.3754 1.3694 10.0641 2.22154 10.2181C3.02319 10.3634 3.8292 10.4811 4.63739 10.5813C7.81216 10.9702 11.0195 11.0167 14.2042 10.7201C14.4636 10.6959 14.7225 10.6695 14.9812 10.6409C15.0619 10.632 15.1437 10.6413 15.2204 10.6681C15.2971 10.6949 15.3669 10.7386 15.4245 10.7958C15.4822 10.8531 15.5263 10.9225 15.5537 10.999C15.5811 11.0755 15.591 11.1572 15.5827 11.238L15.502 12.0219C15.3395 13.6058 15.1771 15.1896 15.0146 16.7733C14.8451 18.4365 14.6745 20.0995 14.5028 21.7622C14.4543 22.2307 14.4059 22.6989 14.3575 23.1669C14.311 23.628 14.3045 24.1034 14.2169 24.5589C14.0789 25.2752 13.594 25.7151 12.8864 25.876C12.2381 26.0235 11.5759 26.101 10.9111 26.1069C10.1741 26.1109 9.43752 26.0782 8.70052 26.0822C7.91374 26.0867 6.9501 26.014 6.34278 25.4285C5.80918 24.9142 5.73544 24.1089 5.6628 23.4124C5.56594 22.4905 5.46993 21.5688 5.37475 20.6472L4.84081 15.5224L4.49538 12.2064C4.48955 12.1516 4.48375 12.0975 4.4783 12.0422C4.43688 11.6467 4.15683 11.2595 3.7155 11.2795C3.33776 11.2962 2.90842 11.6173 2.95273 12.0422L3.20879 14.5006L3.73839 19.5859C3.88926 21.0303 4.03976 22.4749 4.18989 23.9199C4.21896 24.1967 4.24619 24.4743 4.2767 24.751C4.44271 26.2636 5.59778 27.0786 7.02819 27.3081C7.86362 27.4426 8.71939 27.4702 9.56718 27.484C10.654 27.5015 11.7517 27.5433 12.8206 27.3463C14.4047 27.0556 15.5932 25.998 15.7628 24.3573C15.8113 23.8836 15.8597 23.4099 15.9081 22.936C16.0692 21.3687 16.2299 19.8014 16.3905 18.2339L16.9157 13.1123L17.1566 10.7651C17.1686 10.6487 17.2177 10.5393 17.2967 10.453C17.3757 10.3667 17.4805 10.3082 17.5953 10.286C18.0483 10.1977 18.4813 10.047 18.8035 9.70229C19.3163 9.15347 19.4184 8.43789 19.2371 7.71652ZM2.19829 8.22287C2.20519 8.21959 2.19248 8.27879 2.18703 8.3064C2.18594 8.26462 2.18812 8.22757 2.19829 8.22287ZM2.24224 8.56285C2.24588 8.56029 2.25677 8.57484 2.26803 8.59227C2.25096 8.57627 2.24006 8.5643 2.24188 8.56285H2.24224ZM2.28547 8.61986C2.30109 8.64638 2.30944 8.6631 2.28547 8.61986V8.61986ZM2.37228 8.69033H2.37446C2.37446 8.69289 2.37845 8.69542 2.37991 8.69797C2.3775 8.69516 2.37482 8.69261 2.37192 8.69033H2.37228ZM17.5743 8.58499C17.4116 8.73973 17.1664 8.81165 16.9241 8.84762C14.2071 9.25081 11.4505 9.45494 8.70377 9.36487C6.73796 9.29767 4.79286 9.07935 2.84667 8.80439C2.65596 8.77752 2.44928 8.74264 2.31816 8.60207C2.07116 8.3369 2.19248 7.80296 2.25677 7.48259C2.31562 7.1891 2.42822 6.7979 2.77728 6.75613C3.32214 6.6922 3.95487 6.92212 4.49392 7.00385C5.14289 7.10288 5.79429 7.18219 6.4481 7.24177C9.23845 7.49604 12.0757 7.45644 14.8537 7.0845C15.36 7.01644 15.8645 6.93738 16.3673 6.8473C16.8151 6.76702 17.3117 6.61629 17.5823 7.08013C17.7679 7.39615 17.7926 7.81894 17.7639 8.176C17.755 8.33156 17.6871 8.47788 17.5739 8.58499H17.5743Z" fill="#0D0C22"/>
</g>
<defs>
<clipPath id="clip0_45:337">
<rect width="18.6615" height="27" fill="white" transform="translate(0.669273 0.5)"/>
</clipPath>
</defs>
</svg>
