<svg width="25" height="25" viewBox="0 0 25 25" fill="none" xmlns="http://www.w3.org/2000/svg">
<path d="M22.2818 1.94243L1.95343 22.2708C1.70901 22.5152 1.73752 22.9398 2.0165 23.2188C2.29576 23.498 2.72 23.5262 2.96443 23.2818L23.2928 2.95342C23.537 2.70924 23.509 2.28476 23.2298 2.00549C22.9508 1.72651 22.526 1.69825 22.2818 1.94243Z" fill="black"/>
<path d="M23.2818 22.4841L2.95343 2.15569C2.70901 1.91126 2.28448 1.93977 2.0055 2.21876C1.72623 2.49803 1.698 2.92227 1.94243 3.1667L22.2708 23.4951C22.515 23.7393 22.9395 23.7113 23.2188 23.432C23.4977 23.153 23.526 22.7283 23.2818 22.4841Z" fill="black"/>
</svg>
