<?xml version="1.0" standalone="no"?>
<!DOCTYPE svg PUBLIC "-//W3C//DTD SVG 20010904//EN"
 "http://www.w3.org/TR/2001/REC-SVG-20010904/DTD/svg10.dtd">
<svg version="1.0" xmlns="http://www.w3.org/2000/svg"
 width="96.000000pt" height="96.000000pt" viewBox="0 0 96.000000 96.000000"
 preserveAspectRatio="xMidYMid meet">
<metadata>
Created by potrace 1.14, written by Peter Selinger 2001-2017
</metadata>
<g transform="translate(0.000000,96.000000) scale(0.100000,-0.100000)"
fill="#000000" stroke="none">
<path d="M367 732 c-9 -10 -22 -41 -28 -70 -10 -44 -10 -58 4 -93 13 -34 14
-45 4 -58 -10 -14 -10 -14 4 -4 12 10 28 8 80 -10 l64 -22 39 38 c47 45 52 82
22 175 -21 65 -30 72 -62 47 -25 -19 -68 -19 -84 0 -16 19 -23 19 -43 -3z"/>
<path d="M693 550 c-12 -5 -24 -17 -27 -28 -5 -13 -16 -19 -42 -20 -45 -2 -62
-12 -40 -24 9 -5 16 -20 16 -33 0 -14 5 -25 10 -25 6 0 10 -8 10 -17 0 -14 5
-12 25 9 14 15 25 32 25 37 0 5 9 13 21 16 19 6 49 58 49 85 0 12 -17 12 -47
0z"/>
<path d="M461 427 c-1 -16 4 -37 10 -48 16 -31 -6 -52 -47 -44 -40 7 -52 -8
-22 -29 l22 -15 -27 -25 c-39 -36 -35 -53 16 -60 45 -7 77 -1 77 15 0 5 23 9
50 9 49 0 57 4 42 26 -11 17 -72 46 -72 34 0 -5 -14 -10 -31 -10 -42 0 -28 17
21 25 38 6 40 8 40 43 0 64 -9 82 -40 82 -16 0 -31 6 -33 13 -3 6 -6 -1 -6
-16z"/>
</g>
</svg>
