<svg width="16" height="16" viewBox="0 0 16 16" fill="none" xmlns="http://www.w3.org/2000/svg">
<path d="M10.8125 3.5625C10.6517 3.5625 10.491 3.50084 10.3688 3.37762L8.4421 1.43506C8.3237 1.31572 8.16673 1.25 8.00001 1.25C7.83329 1.25 7.67632 1.31572 7.55795 1.43506L5.63126 3.37762C5.3882 3.62269 4.99251 3.62434 4.74739 3.38125C4.50229 3.13819 4.50067 2.74244 4.74376 2.49738L6.67042 0.554812C7.02529 0.197031 7.49748 0 8.00001 0C8.50254 0 8.97473 0.197031 9.3296 0.554812L11.2563 2.49738C11.4993 2.74244 11.4977 3.13819 11.2526 3.38125C11.1308 3.50212 10.9716 3.5625 10.8125 3.5625ZM9.3296 15.4452L11.2563 13.5026C11.4993 13.2576 11.4977 12.8618 11.2526 12.6187C11.0075 12.3757 10.6118 12.3773 10.3688 12.6224L8.4421 14.5649C8.3237 14.6843 8.16673 14.75 8.00001 14.75C7.83329 14.75 7.67632 14.6843 7.55795 14.5649L5.63126 12.6224C5.3882 12.3773 4.99251 12.3757 4.74739 12.6187C4.50229 12.8618 4.50067 13.2576 4.74376 13.5026L6.67042 15.4452C7.02529 15.803 7.49748 16 8.00001 16C8.50254 16 8.97473 15.803 9.3296 15.4452ZM10.1563 7.96875C10.1563 6.76256 9.17494 5.78125 7.96876 5.78125C6.76257 5.78125 5.78126 6.76256 5.78126 7.96875C5.78126 9.17494 6.76257 10.1562 7.96876 10.1562C9.17494 10.1562 10.1563 9.17494 10.1563 7.96875ZM8.90626 7.96875C8.90626 8.48569 8.4857 8.90625 7.96876 8.90625C7.45182 8.90625 7.03126 8.48569 7.03126 7.96875C7.03126 7.45181 7.45182 7.03125 7.96876 7.03125C8.4857 7.03125 8.90626 7.45181 8.90626 7.96875Z" fill="black"/>
</svg>
